<svg width="1440" height="2604" viewBox="0 0 1440 2604" fill="none" xmlns="http://www.w3.org/2000/svg">
<g clip-path="url(#clip0_2137_343)">
<rect width="1440" height="2604" fill="white"/>
<circle cx="866" cy="151" r="4" fill="#D6CDBE"/>
<circle cx="911" cy="304" r="4" fill="#D6CDBE"/>
<circle cx="1027" cy="215" r="4" fill="#D6CDBE"/>
<circle cx="1007" cy="71" r="4" fill="#D6CDBE"/>
<circle cx="1130" cy="86" r="4" fill="#D6CDBE"/>
<circle cx="1114" cy="159" r="4" fill="#D6CDBE"/>
<circle cx="838" cy="358" r="4" fill="#D6CDBE"/>
<circle cx="753" cy="515" r="4" fill="#D6CDBE"/>
<circle cx="925" cy="507" r="4" fill="#D6CDBE"/>
<circle cx="855" cy="641" r="4" fill="#D6CDBE"/>
<circle cx="813" cy="766" r="4" fill="#D6CDBE"/>
<circle cx="617" cy="848" r="4" fill="#D6CDBE"/>
<circle cx="648" cy="681" r="4" fill="#D6CDBE"/>
<circle cx="753" cy="920" r="4" fill="#D6CDBE"/>
<circle cx="640" cy="1001" r="4" fill="#D6CDBE"/>
<circle cx="426" cy="912" r="4" fill="#D6CDBE"/>
<circle cx="464" cy="1040" r="4" fill="#D6CDBE"/>
<circle cx="550" cy="1180" r="4" fill="#D6CDBE"/>
<circle cx="338" cy="1396" r="4" fill="#D6CDBE"/>
<circle cx="442" cy="1538" r="4" fill="#D6CDBE"/>
<circle cx="716" cy="1706" r="4" fill="#D6CDBE"/>
<circle cx="821" cy="1591" r="4" fill="#D6CDBE"/>
<circle cx="854" cy="1461" r="4" fill="#D6CDBE"/>
<circle cx="973" cy="1550" r="4" fill="#D6CDBE"/>
<circle cx="1089" cy="1491" r="4" fill="#D6CDBE"/>
<circle cx="1202" cy="1599" r="4" fill="#D6CDBE"/>
<circle cx="1142" cy="1675" r="4" fill="#D6CDBE"/>
<circle cx="946" cy="1737" r="4" fill="#D6CDBE"/>
<circle cx="1134" cy="1845" r="4" fill="#D6CDBE"/>
<circle cx="981" cy="1917" r="4" fill="#D6CDBE"/>
<circle cx="761" cy="1988" r="4" fill="#D6CDBE"/>
<circle cx="805" cy="2116" r="4" fill="#D6CDBE"/>
<circle cx="679" cy="2204" r="4" fill="#D6CDBE"/>
<circle cx="846" cy="2346" r="4" fill="#D6CDBE"/>
<circle cx="989" cy="2390" r="4" fill="#D6CDBE"/>
<circle cx="1246" cy="2362" r="4" fill="#D6CDBE"/>
<circle cx="1296" cy="2519" r="4" fill="#D6CDBE"/>
<circle cx="1187" cy="2574" r="4" fill="#D6CDBE"/>
<circle cx="1084" cy="2539" r="4" fill="#D6CDBE"/>
<circle cx="1386" cy="2578" r="4" fill="#D6CDBE"/>
<circle cx="1412" cy="2511" r="4" fill="#D6CDBE"/>
<circle cx="1022" cy="2482" r="4" fill="#D6CDBE"/>
<circle cx="558" cy="1417" r="4" fill="#D6CDBE"/>
<circle cx="671" cy="1546" r="4" fill="#D6CDBE"/>
<circle cx="550" cy="1564" r="4" fill="#D6CDBE"/>
<circle cx="216" cy="1517" r="4" fill="#D6CDBE"/>
<circle cx="321" cy="1240" r="4" fill="#D6CDBE"/>
<circle cx="434" cy="1259" r="4" fill="#D6CDBE"/>
<circle cx="365" cy="993" r="4" fill="#D6CDBE"/>
<circle cx="208" cy="1083" r="4" fill="#D6CDBE"/>
<circle cx="175" cy="1267" r="4" fill="#D6CDBE"/>
<circle cx="83" cy="1374" r="4" fill="#D6CDBE"/>
<circle cx="1012" cy="572" r="4" fill="#D6CDBE"/>
<circle cx="1074" cy="487" r="4" fill="#D6CDBE"/>
<circle cx="1098" cy="399" r="4" fill="#D6CDBE"/>
<circle cx="1138" cy="350" r="4" fill="#D6CDBE"/>
<circle cx="1183" cy="282" r="4" fill="#D6CDBE"/>
<circle cx="1252" cy="337" r="4" fill="#D6CDBE"/>
<circle cx="1260" cy="264" r="4" fill="#D6CDBE"/>
<circle cx="1280" cy="143" r="4" fill="#D6CDBE"/>
<circle cx="1352" cy="94" r="4" fill="#D6CDBE"/>
<circle cx="1360" cy="211" r="4" fill="#D6CDBE"/>
<circle cx="1331" cy="308" r="4" fill="#D6CDBE"/>
<circle cx="1426" cy="442" r="4" fill="#D6CDBE"/>
<circle cx="1301" cy="395" r="4" fill="#D6CDBE"/>
<circle cx="1284" cy="45" r="4" fill="#D6CDBE"/>
<circle cx="1405" cy="25" r="4" fill="#D6CDBE"/>
<circle cx="1183" cy="450" r="4" fill="#D6CDBE"/>
<circle cx="1272" cy="458" r="4" fill="#D6CDBE"/>
<circle cx="1284" cy="568" r="4" fill="#D6CDBE"/>
<circle cx="1219" cy="645" r="4" fill="#D6CDBE"/>
<circle cx="1413" cy="625" r="4" fill="#D6CDBE"/>
<circle cx="1134" cy="607" r="4" fill="#D6CDBE"/>
<circle cx="794" cy="282" r="4" fill="#D6CDBE"/>
<circle cx="786" cy="53" r="4" fill="#D6CDBE"/>
<line x1="786.387" y1="52.6838" x2="866.387" y2="150.684" stroke="#D6CDBE"/>
<line x1="866.752" y1="150.566" x2="1006.75" y2="70.5659" stroke="#D6CDBE"/>
<line x1="1008.06" y1="70.5037" x2="1130.06" y2="85.5037" stroke="#D6CDBE"/>
<line x1="867.438" y1="150.242" x2="794.438" y2="282.242" stroke="#D6CDBE"/>
<line x1="910.908" y1="304.491" x2="793.908" y2="282.491" stroke="#D6CDBE"/>
<line x1="838.57" y1="358.255" x2="793.57" y2="282.255" stroke="#D6CDBE"/>
<line x1="912.295" y1="304.404" x2="838.295" y2="358.404" stroke="#D6CDBE"/>
<line x1="911.521" y1="304.144" x2="865.521" y2="151.144" stroke="#D6CDBE"/>
<line x1="1008.46" y1="71.1922" x2="911.462" y2="304.192" stroke="#D6CDBE"/>
<line x1="911.694" y1="303.605" x2="1026.69" y2="214.605" stroke="#D6CDBE"/>
<line x1="1026.5" y1="215.069" x2="1006.5" y2="71.0688" stroke="#D6CDBE"/>
<line x1="1114.27" y1="159.42" x2="1027.27" y2="215.42" stroke="#D6CDBE"/>
<line x1="1007.32" y1="70.6138" x2="1114.32" y2="158.614" stroke="#D6CDBE"/>
<line x1="1131.49" y1="86.1134" x2="1114.49" y2="159.113" stroke="#D6CDBE"/>
<line x1="839.438" y1="359.241" x2="753.438" y2="515.241" stroke="#D6CDBE"/>
<line x1="752.977" y1="514.501" x2="924.977" y2="506.501" stroke="#D6CDBE"/>
<line x1="912.499" y1="303.968" x2="925.499" y2="506.968" stroke="#D6CDBE"/>
<line x1="1074.07" y1="487.496" x2="925.067" y2="507.496" stroke="#D6CDBE"/>
<line x1="1073.52" y1="486.868" x2="1097.52" y2="398.868" stroke="#D6CDBE"/>
<line x1="912.373" y1="304.668" x2="1074.37" y2="486.668" stroke="#D6CDBE"/>
<line x1="912.227" y1="303.555" x2="1098.23" y2="398.555" stroke="#D6CDBE"/>
<line x1="1028.47" y1="214.822" x2="1098.47" y2="398.822" stroke="#D6CDBE"/>
<line x1="1028.39" y1="214.684" x2="1138.39" y2="349.684" stroke="#D6CDBE"/>
<line x1="1097.61" y1="398.684" x2="1137.61" y2="349.684" stroke="#D6CDBE"/>
<line x1="1184.41" y1="282.28" x2="1138.41" y2="350.28" stroke="#D6CDBE"/>
<line x1="1252.69" y1="337.393" x2="1182.69" y2="282.393" stroke="#D6CDBE"/>
<line x1="1138.94" y1="349.503" x2="1251.94" y2="336.503" stroke="#D6CDBE"/>
<line x1="1182.56" y1="282.245" x2="1113.56" y2="159.245" stroke="#D6CDBE"/>
<line x1="1251.5" y1="336.946" x2="1259.5" y2="263.946" stroke="#D6CDBE"/>
<line x1="1115.3" y1="157.596" x2="1260.3" y2="263.596" stroke="#D6CDBE"/>
<line x1="1130.4" y1="84.7062" x2="1260.4" y2="263.706" stroke="#D6CDBE"/>
<line x1="1280.49" y1="143.082" x2="1260.49" y2="264.082" stroke="#D6CDBE"/>
<line x1="1131.18" y1="84.5341" x2="1280.18" y2="142.534" stroke="#D6CDBE"/>
<line x1="1279.72" y1="142.587" x2="1351.72" y2="93.5866" stroke="#D6CDBE"/>
<line x1="1284.3" y1="43.5972" x2="1352.3" y2="93.5972" stroke="#D6CDBE"/>
<line x1="1351.61" y1="92.6926" x2="1404.61" y2="24.6926" stroke="#D6CDBE"/>
<line x1="1283.92" y1="44.5067" x2="1404.92" y2="24.5067" stroke="#D6CDBE"/>
<line x1="1353.5" y1="93.9701" x2="1360.5" y2="210.97" stroke="#D6CDBE"/>
<line x1="1330.52" y1="307.857" x2="1359.52" y2="210.857" stroke="#D6CDBE"/>
<line x1="1260.27" y1="263.578" x2="1331.27" y2="308.578" stroke="#D6CDBE"/>
<line x1="1258.77" y1="262.555" x2="1359.77" y2="210.555" stroke="#D6CDBE"/>
<line x1="1072.84" y1="486.526" x2="1182.84" y2="449.526" stroke="#D6CDBE"/>
<line x1="1098.26" y1="398.571" x2="1183.26" y2="449.571" stroke="#D6CDBE"/>
<line x1="1139.46" y1="349.799" x2="1183.46" y2="449.799" stroke="#D6CDBE"/>
<line x1="1252.43" y1="337.261" x2="1183.43" y2="450.261" stroke="#D6CDBE"/>
<line x1="1271.95" y1="458.498" x2="1183.95" y2="450.498" stroke="#D6CDBE"/>
<line x1="1301.45" y1="395.209" x2="1272.45" y2="458.209" stroke="#D6CDBE"/>
<line x1="1301.62" y1="395.323" x2="1252.62" y2="337.323" stroke="#D6CDBE"/>
<line x1="1332.17" y1="308.469" x2="1253.17" y2="337.469" stroke="#D6CDBE"/>
<line x1="1273.5" y1="457.95" x2="1284.5" y2="567.95" stroke="#D6CDBE"/>
<line x1="1413.8" y1="625.458" x2="1283.8" y2="568.458" stroke="#D6CDBE"/>
<line x1="1219.62" y1="644.68" x2="1283.62" y2="567.68" stroke="#D6CDBE"/>
<line x1="1135.21" y1="606.544" x2="1219.21" y2="644.544" stroke="#D6CDBE"/>
<line x1="1219.95" y1="644.503" x2="1413.95" y2="624.503" stroke="#D6CDBE"/>
<line x1="1184.38" y1="449.677" x2="1284.38" y2="567.677" stroke="#D6CDBE"/>
<line x1="1302.5" y1="395.052" x2="1284.5" y2="568.052" stroke="#D6CDBE"/>
<line x1="1133.87" y1="606.516" x2="1283.87" y2="567.516" stroke="#D6CDBE"/>
<line x1="1301.17" y1="395.531" x2="1426.17" y2="441.531" stroke="#D6CDBE"/>
<line x1="1332.64" y1="308.654" x2="1464.64" y2="170.654" stroke="#D6CDBE"/>
<line x1="926.301" y1="506.601" x2="1012.3" y2="571.601" stroke="#D6CDBE"/>
<line x1="854.558" y1="640.766" x2="925.558" y2="506.766" stroke="#D6CDBE"/>
<line x1="1013.2" y1="572.458" x2="855.2" y2="641.458" stroke="#D6CDBE"/>
<line x1="1331.08" y1="307.506" x2="1469.08" y2="328.506" stroke="#D6CDBE"/>
<circle cx="797" cy="2570" r="4" fill="#D6CDBE"/>
<circle cx="630" cy="2451" r="4" fill="#D6CDBE"/>
<circle cx="360" cy="2459" r="4" fill="#D6CDBE"/>
<circle cx="398" cy="2578" r="4" fill="#D6CDBE"/>
<circle cx="288" cy="2534" r="4" fill="#D6CDBE"/>
<circle cx="536" cy="2530" r="4" fill="#D6CDBE"/>
<circle cx="268" cy="2354" r="4" fill="#D6CDBE"/>
<circle cx="117" cy="2511" r="4" fill="#D6CDBE"/>
<circle cx="54" cy="2338" r="4" fill="#D6CDBE"/>
<line x1="857.092" y1="642.492" x2="648.092" y2="681.492" stroke="#D6CDBE"/>
<line x1="813.525" y1="765.844" x2="854.525" y2="640.844" stroke="#D6CDBE"/>
<line x1="616.508" y1="847.909" x2="647.508" y2="680.909" stroke="#D6CDBE"/>
<line x1="814.192" y1="766.462" x2="617.192" y2="848.462" stroke="#D6CDBE"/>
<line x1="649.232" y1="679.557" x2="813.232" y2="765.557" stroke="#D6CDBE"/>
<line x1="752.535" y1="919.816" x2="813.535" y2="765.816" stroke="#D6CDBE"/>
<line x1="640.705" y1="1001.6" x2="752.705" y2="919.597" stroke="#D6CDBE"/>
<line x1="425.841" y1="911.526" x2="616.841" y2="847.526" stroke="#D6CDBE"/>
<line x1="463.892" y1="1040.51" x2="639.892" y2="1001.51" stroke="#D6CDBE"/>
<line x1="365.598" y1="992.702" x2="425.598" y2="911.702" stroke="#D6CDBE"/>
<line x1="366.22" y1="991.551" x2="464.22" y2="1039.55" stroke="#D6CDBE"/>
<line x1="426.191" y1="911.538" x2="641.191" y2="1000.54" stroke="#D6CDBE"/>
<line x1="618.235" y1="847.559" x2="753.235" y2="919.559" stroke="#D6CDBE"/>
<line x1="464.426" y1="1039.74" x2="550.426" y2="1179.74" stroke="#D6CDBE"/>
<line x1="433.719" y1="1258.59" x2="549.719" y2="1179.59" stroke="#D6CDBE"/>
<line x1="322.084" y1="1239.51" x2="434.084" y2="1258.51" stroke="#D6CDBE"/>
<line x1="464.495" y1="1040.07" x2="434.495" y2="1259.07" stroke="#D6CDBE"/>
<line x1="208.749" y1="1083.57" x2="365.749" y2="992.567" stroke="#D6CDBE"/>
<line x1="321.595" y1="1240.29" x2="207.595" y2="1083.29" stroke="#D6CDBE"/>
<line x1="321.592" y1="1239.71" x2="463.592" y2="1039.71" stroke="#D6CDBE"/>
<line x1="208.492" y1="1083.09" x2="175.492" y2="1267.09" stroke="#D6CDBE"/>
<line x1="321.091" y1="1240.49" x2="175.091" y2="1267.49" stroke="#D6CDBE"/>
<line x1="82.6209" y1="1373.67" x2="174.621" y2="1266.67" stroke="#D6CDBE"/>
<line x1="338.503" y1="1395.06" x2="320.503" y2="1240.06" stroke="#D6CDBE"/>
<line x1="216.648" y1="1516.64" x2="338.648" y2="1395.65" stroke="#D6CDBE"/>
<line x1="83.3648" y1="1373.66" x2="217.365" y2="1516.66" stroke="#D6CDBE"/>
<line x1="176.494" y1="1266.92" x2="216.494" y2="1516.92" stroke="#D6CDBE"/>
<line x1="175.309" y1="1266.61" x2="339.309" y2="1395.61" stroke="#D6CDBE"/>
<line x1="217.044" y1="1517.5" x2="442.044" y2="1537.5" stroke="#D6CDBE"/>
<line x1="338.045" y1="1396.5" x2="558.045" y2="1416.5" stroke="#D6CDBE"/>
<line x1="435.395" y1="1258.69" x2="558.395" y2="1416.69" stroke="#D6CDBE"/>
<line x1="441.638" y1="1538.66" x2="557.638" y2="1416.66" stroke="#D6CDBE"/>
<line x1="442.117" y1="1537.51" x2="550.117" y2="1563.51" stroke="#D6CDBE"/>
<line x1="559.499" y1="1417.03" x2="550.499" y2="1564.03" stroke="#D6CDBE"/>
<line x1="557.375" y1="1416.67" x2="671.375" y2="1545.67" stroke="#D6CDBE"/>
<line x1="549.926" y1="1563.51" x2="670.926" y2="1545.51" stroke="#D6CDBE"/>
<line x1="671.786" y1="1546.55" x2="853.786" y2="1460.55" stroke="#D6CDBE"/>
<line x1="821.86" y1="1591.48" x2="670.86" y2="1547.48" stroke="#D6CDBE"/>
<line x1="854.485" y1="1460.12" x2="821.485" y2="1591.12" stroke="#D6CDBE"/>
<line x1="671.481" y1="1545.86" x2="716.481" y2="1705.86" stroke="#D6CDBE"/>
<line x1="822.366" y1="1592.34" x2="716.366" y2="1706.34" stroke="#D6CDBE"/>
<line x1="853.298" y1="1460.6" x2="973.298" y2="1549.6" stroke="#D6CDBE"/>
<line x1="1090.23" y1="1491.45" x2="973.225" y2="1550.45" stroke="#D6CDBE"/>
<line x1="1202.65" y1="1599.36" x2="1089.65" y2="1491.36" stroke="#D6CDBE"/>
<line x1="215.86" y1="1516.52" x2="557.86" y2="1416.52" stroke="#D6CDBE"/>
<line x1="720.068" y1="1705.5" x2="946.068" y2="1736.5" stroke="#D6CDBE"/>
<line x1="820.867" y1="1591.52" x2="972.867" y2="1549.52" stroke="#D6CDBE"/>
<line x1="946.621" y1="1737.33" x2="821.621" y2="1592.33" stroke="#D6CDBE"/>
<line x1="1142.15" y1="1676.48" x2="946.149" y2="1737.48" stroke="#D6CDBE"/>
<line x1="1203.39" y1="1598.31" x2="1142.39" y2="1675.31" stroke="#D6CDBE"/>
<line x1="973.495" y1="1550.07" x2="946.495" y2="1737.07" stroke="#D6CDBE"/>
<line x1="973.298" y1="1549.6" x2="1143.3" y2="1675.6" stroke="#D6CDBE"/>
<line x1="973.105" y1="1549.51" x2="1202.1" y2="1598.51" stroke="#D6CDBE"/>
<line x1="1203.48" y1="1599.14" x2="1134.48" y2="1845.14" stroke="#D6CDBE"/>
<line x1="1143.5" y1="1676.03" x2="1134.5" y2="1845.03" stroke="#D6CDBE"/>
<line x1="946.247" y1="1737.57" x2="1134.25" y2="1844.57" stroke="#D6CDBE"/>
<line x1="1135.21" y1="1845.45" x2="981.212" y2="1917.45" stroke="#D6CDBE"/>
<line x1="946.491" y1="1735.91" x2="981.491" y2="1916.91" stroke="#D6CDBE"/>
<line x1="761.846" y1="1987.52" x2="980.846" y2="1916.52" stroke="#D6CDBE"/>
<line x1="804.625" y1="2115.67" x2="980.625" y2="1916.67" stroke="#D6CDBE"/>
<line x1="762.474" y1="1987.84" x2="805.474" y2="2115.84" stroke="#D6CDBE"/>
<line x1="1136.32" y1="1844.39" x2="805.317" y2="2116.39" stroke="#D6CDBE"/>
<line x1="805.284" y1="2117.41" x2="679.284" y2="2204.41" stroke="#D6CDBE"/>
<line x1="762.467" y1="1988.18" x2="679.467" y2="2204.18" stroke="#D6CDBE"/>
<line x1="846.677" y1="2346.38" x2="678.677" y2="2204.38" stroke="#D6CDBE"/>
<line x1="267.829" y1="2353.53" x2="678.829" y2="2203.53" stroke="#D6CDBE"/>
<line x1="679.49" y1="2204.1" x2="630.49" y2="2451.1" stroke="#D6CDBE"/>
<line x1="847.148" y1="2345.52" x2="989.148" y2="2389.52" stroke="#D6CDBE"/>
<line x1="989.946" y1="2389.5" x2="1245.95" y2="2361.5" stroke="#D6CDBE"/>
<line x1="1246.48" y1="2361.85" x2="1296.48" y2="2518.85" stroke="#D6CDBE"/>
<line x1="1385.72" y1="2579.42" x2="1295.72" y2="2519.42" stroke="#D6CDBE"/>
<line x1="1022.53" y1="2482.17" x2="988.531" y2="2390.17" stroke="#D6CDBE"/>
<line x1="1023.07" y1="2482.5" x2="1296.07" y2="2518.5" stroke="#D6CDBE"/>
<line x1="1022.76" y1="2481.56" x2="1245.76" y2="2361.56" stroke="#D6CDBE"/>
<line x1="796.818" y1="2569.53" x2="1021.82" y2="2481.53" stroke="#D6CDBE"/>
<line x1="846.488" y1="2347.11" x2="797.488" y2="2570.11" stroke="#D6CDBE"/>
<line x1="796.658" y1="2569.64" x2="988.658" y2="2389.64" stroke="#D6CDBE"/>
<line x1="631.291" y1="2450.59" x2="797.291" y2="2569.59" stroke="#D6CDBE"/>
<line x1="631.781" y1="2450.55" x2="845.781" y2="2346.55" stroke="#D6CDBE"/>
<line x1="54.0373" y1="2337.5" x2="268.037" y2="2353.5" stroke="#D6CDBE"/>
<line x1="55.4707" y1="2337.83" x2="117.471" y2="2510.83" stroke="#D6CDBE"/>
<line x1="360.626" y1="2459.33" x2="267.626" y2="2354.33" stroke="#D6CDBE"/>
<line x1="117.895" y1="2510.51" x2="359.895" y2="2458.51" stroke="#D6CDBE"/>
<line x1="116.64" y1="2510.65" x2="267.64" y2="2353.65" stroke="#D6CDBE"/>
<circle cx="427" cy="2476" r="4" fill="#D6CDBE"/>
<circle cx="34" cy="2553" r="4" fill="#D6CDBE"/>
<line x1="1023.34" y1="2481.63" x2="1084.34" y2="2538.63" stroke="#D6CDBE"/>
<line x1="1186.77" y1="2573.55" x2="1295.77" y2="2518.55" stroke="#D6CDBE"/>
<line x1="1085.16" y1="2538.53" x2="1187.16" y2="2573.53" stroke="#D6CDBE"/>
<line x1="1083.95" y1="2538.5" x2="1295.95" y2="2518.5" stroke="#D6CDBE"/>
<line x1="1386.53" y1="2578.83" x2="1411.53" y2="2510.83" stroke="#D6CDBE"/>
<line x1="1295.97" y1="2518.5" x2="1411.97" y2="2510.5" stroke="#D6CDBE"/>
<line x1="118.224" y1="2511.45" x2="34.2236" y2="2553.45" stroke="#D6CDBE"/>
<line x1="289.035" y1="2535.5" x2="34.0352" y2="2553.5" stroke="#D6CDBE"/>
<line x1="360.123" y1="2458.52" x2="427.123" y2="2475.52" stroke="#D6CDBE"/>
<line x1="287.639" y1="2534.65" x2="360.639" y2="2458.65" stroke="#D6CDBE"/>
<line x1="428.224" y1="2475.55" x2="536.224" y2="2529.55" stroke="#D6CDBE"/>
<line x1="398.835" y1="2577.53" x2="535.835" y2="2529.53" stroke="#D6CDBE"/>
<line x1="398.519" y1="2577.86" x2="427.519" y2="2475.86" stroke="#D6CDBE"/>
</g>
<defs>
<clipPath id="clip0_2137_343">
<rect width="1440" height="2604" fill="white"/>
</clipPath>
</defs>
</svg>
