<svg width="30" height="30" viewBox="0 0 30 30" fill="none" xmlns="http://www.w3.org/2000/svg">
<path d="M11.4688 13.5312C10.4896 12.5521 10 11.375 10 10C10 8.625 10.4896 7.44792 11.4688 6.46875C12.4479 5.48958 13.625 5 15 5C16.375 5 17.5521 5.48958 18.5312 6.46875C19.5104 7.44792 20 8.625 20 10C20 11.375 19.5104 12.5521 18.5312 13.5312C17.5521 14.5104 16.375 15 15 15C13.625 15 12.4479 14.5104 11.4688 13.5312ZM5 22.5V21.5C5 20.7917 5.1825 20.1408 5.5475 19.5475C5.9125 18.9542 6.39667 18.5008 7 18.1875C8.29167 17.5417 9.60417 17.0575 10.9375 16.735C12.2708 16.4125 13.625 16.2508 15 16.25C16.375 16.2492 17.7292 16.4108 19.0625 16.735C20.3958 17.0592 21.7083 17.5433 23 18.1875C23.6042 18.5 24.0887 18.9533 24.4537 19.5475C24.8187 20.1417 25.0008 20.7925 25 21.5V22.5C25 23.1875 24.7554 23.7763 24.2663 24.2663C23.7771 24.7563 23.1883 25.0008 22.5 25H7.5C6.8125 25 6.22417 24.7554 5.735 24.2663C5.24583 23.7771 5.00083 23.1883 5 22.5ZM7.5 22.5H22.5V21.5C22.5 21.2708 22.4429 21.0625 22.3288 20.875C22.2146 20.6875 22.0633 20.5417 21.875 20.4375C20.75 19.875 19.6146 19.4533 18.4687 19.1725C17.3229 18.8917 16.1667 18.7508 15 18.75C13.8333 18.7492 12.6771 18.89 11.5313 19.1725C10.3854 19.455 9.25 19.8767 8.125 20.4375C7.9375 20.5417 7.78625 20.6875 7.67125 20.875C7.55625 21.0625 7.49917 21.2708 7.5 21.5V22.5ZM16.7663 11.7663C17.2554 11.2763 17.5 10.6875 17.5 10C17.5 9.3125 17.2554 8.72417 16.7663 8.235C16.2771 7.74583 15.6883 7.50083 15 7.5C14.3117 7.49917 13.7233 7.74417 13.235 8.235C12.7467 8.72583 12.5017 9.31417 12.5 10C12.4983 10.6858 12.7433 11.2746 13.235 11.7663C13.7267 12.2579 14.315 12.5025 15 12.5C15.685 12.4975 16.2738 12.2529 16.7663 11.7663Z" fill="black"/>
</svg>
