<svg width="18" height="18" viewBox="0 0 18 18" fill="none" xmlns="http://www.w3.org/2000/svg">
<path d="M10.9014 16.4996L13.1184 9.94237H14.2261L16.4424 16.4996M13.1611 5.10112L15.2274 6.23888L16.3651 4.17188" stroke="black" stroke-width="1.5" stroke-linecap="square"/>
<path d="M15.2249 6.23925C15.0814 4.45999 14.3261 2.78534 13.0874 1.5" stroke="black" stroke-width="1.5" stroke-linejoin="round"/>
<path d="M3.79736 1.5H9.39611V6.53925C9.38409 7.27376 9.08387 7.97411 8.56019 8.48928C8.03652 9.00446 7.33134 9.29318 6.59674 9.29318C5.86213 9.29318 5.15696 9.00446 4.63328 8.48928C4.10961 7.97411 3.80939 7.27376 3.79736 6.53925V1.5Z" stroke="black" stroke-width="1.5"/>
<path d="M1.55713 6.54004C1.55722 7.4961 1.82927 8.43241 2.34154 9.23966C2.85381 10.0469 3.58514 10.6918 4.45016 11.0989C5.31518 11.5061 6.27818 11.6588 7.22674 11.5393C8.17529 11.4197 9.07025 11.0327 9.80713 10.4235M6.59638 11.5793V13.8368M11.6401 14.376H15.7036" stroke="black" stroke-width="1.5"/>
</svg>
