<svg width="24" height="24" viewBox="0 0 24 24" fill="none" xmlns="http://www.w3.org/2000/svg">
<path d="M20.5001 9.5V14.167C20.5001 16.34 20.5001 17.427 20.1691 18.292C19.919 18.9453 19.5346 19.5388 19.0407 20.0342C18.5469 20.5296 17.9546 20.9158 17.3021 21.168C16.4391 21.5 15.3561 21.5 13.1901 21.5C12.0531 21.5 11.4851 21.5 10.9571 21.383C10.1502 21.2043 9.40018 20.8285 8.77411 20.289C8.36411 19.934 8.02411 19.479 7.34111 18.567L4.33711 14.549C4.11257 14.2485 3.994 13.882 3.99997 13.5069C4.00594 13.1318 4.13611 12.7692 4.37011 12.476C4.51788 12.2902 4.7033 12.1377 4.91418 12.0286C5.12507 11.9195 5.35665 11.8563 5.59371 11.8431C5.83077 11.8298 6.06795 11.8669 6.28966 11.9519C6.51137 12.0368 6.71259 12.1677 6.88011 12.336L8.50011 13.964V6C8.50011 5.60218 8.65815 5.22064 8.93945 4.93934C9.22075 4.65804 9.60229 4.5 10.0001 4.5C10.3979 4.5 10.7795 4.65804 11.0608 4.93934C11.3421 5.22064 11.5001 5.60218 11.5001 6M11.5001 6V4C11.5001 3.60218 11.6581 3.22064 11.9394 2.93934C12.2208 2.65804 12.6023 2.5 13.0001 2.5C13.3979 2.5 13.7795 2.65804 14.0608 2.93934C14.3421 3.22064 14.5001 3.60218 14.5001 4V6M11.5001 6V10.5M14.5001 6C14.5001 5.60218 14.6581 5.22064 14.9395 4.93934C15.2208 4.65804 15.6023 4.5 16.0001 4.5C16.3979 4.5 16.7795 4.65804 17.0608 4.93934C17.3421 5.22064 17.5001 5.60218 17.5001 6V8M14.5001 6V10.5M17.5001 8C17.5001 7.60218 17.6581 7.22064 17.9395 6.93934C18.2208 6.65804 18.6023 6.5 19.0001 6.5C19.3979 6.5 19.7795 6.65804 20.0608 6.93934C20.3421 7.22064 20.5001 7.60218 20.5001 8V10.5M17.5001 8V10.5" stroke="black" stroke-width="1.5" stroke-linecap="round" stroke-linejoin="round"/>
</svg>
