<svg width="24" height="24" viewBox="0 0 24 24" fill="none" xmlns="http://www.w3.org/2000/svg">
<path fill-rule="evenodd" clip-rule="evenodd" d="M14.7569 2.62097C15.635 1.74284 16.826 1.24951 18.0679 1.24951C19.3098 1.24951 20.5008 1.74284 21.3789 2.62097C22.257 3.4991 22.7504 4.69011 22.7504 5.93197C22.7504 7.17384 22.257 8.36484 21.3789 9.24297L11.8929 18.729C11.3509 19.271 11.0329 19.589 10.6769 19.866C10.2582 20.194 9.80823 20.4723 9.32689 20.701C8.92089 20.894 8.4929 21.037 7.7669 21.279L4.4349 22.389L3.63289 22.657C3.31392 22.7635 2.97159 22.779 2.6443 22.7018C2.317 22.6246 2.01768 22.4578 1.77989 22.22C1.54211 21.9822 1.37527 21.6829 1.29808 21.3556C1.2209 21.0283 1.23641 20.6859 1.3429 20.367L2.72089 16.234C2.96289 15.507 3.1059 15.079 3.2989 14.672C3.52823 14.192 3.80656 13.742 4.13389 13.322C4.40989 12.968 4.7289 12.649 5.2709 12.107L14.7569 2.62097ZM4.3999 20.821L7.2409 19.873C8.0319 19.609 8.36789 19.496 8.68089 19.347C9.06223 19.1643 9.41989 18.9433 9.75389 18.684C10.0269 18.47 10.2789 18.221 10.8689 17.631L18.4389 10.061C17.401 9.69319 16.4589 9.09722 15.6819 8.31697C14.9024 7.5398 14.3071 6.59768 13.9399 5.55997L6.36989 13.13C5.7799 13.719 5.5299 13.97 5.3169 14.244C5.0569 14.5773 4.83589 14.935 4.65389 15.317C4.50489 15.63 4.39189 15.966 4.12789 16.757L3.1799 19.6L4.3999 20.821ZM15.1549 4.34297C15.1899 4.51797 15.2469 4.75597 15.3439 5.03297C15.6364 5.87002 16.1151 6.62976 16.7439 7.25497C17.3688 7.88361 18.1282 8.36229 18.9649 8.65497C19.2429 8.75197 19.4809 8.80897 19.6559 8.84397L20.3179 8.18197C20.9112 7.58452 21.2435 6.77627 21.242 5.93428C21.2405 5.09229 20.9054 4.28521 20.31 3.68983C19.7147 3.09446 18.9076 2.75932 18.0656 2.75785C17.2236 2.75638 16.4154 3.08868 15.8179 3.68197L15.1549 4.34297Z" fill="black"/>
</svg>
