<svg width="24" height="24" viewBox="0 0 24 24" fill="none" xmlns="http://www.w3.org/2000/svg">
<path d="M20 9.99997L20.707 10.707L21.414 9.99997L20.707 9.29297L20 9.99997ZM3 18C3 18.2652 3.10536 18.5195 3.29289 18.7071C3.48043 18.8946 3.73478 19 4 19C4.26522 19 4.51957 18.8946 4.70711 18.7071C4.89464 18.5195 5 18.2652 5 18H3ZM15.707 15.707L20.707 10.707L19.293 9.29297L14.293 14.293L15.707 15.707ZM20.707 9.29297L15.707 4.29297L14.293 5.70697L19.293 10.707L20.707 9.29297ZM20 8.99997H10V11H20V8.99997ZM3 16V18H5V16H3ZM10 8.99997C8.14348 8.99997 6.36301 9.73747 5.05025 11.0502C3.7375 12.363 3 14.1435 3 16H5C5 14.6739 5.52678 13.4021 6.46447 12.4644C7.40215 11.5268 8.67392 11 10 11V8.99997Z" fill="black"/>
</svg>
